<mxfile host="app.diagrams.net" modified="2023-10-09T23:21:22.961Z" agent="Mozilla/5.0 (Windows NT 10.0; Win64; x64) AppleWebKit/537.36 (KHTML, like Gecko) Chrome/117.0.0.0 Safari/537.36 Edg/117.0.2045.60" etag="kpi9nvNUceMvllxlgXpq" version="21.7.5" type="device">
  <diagram name="PÃ¡gina-1" id="iMnXWqEiwd33iyJ38jX9">
    <mxGraphModel dx="1063" dy="1107" grid="1" gridSize="10" guides="1" tooltips="1" connect="1" arrows="1" fold="1" page="1" pageScale="1" pageWidth="827" pageHeight="1169" math="0" shadow="0">
      <root>
        <mxCell id="0" />
        <mxCell id="1" parent="0" />
        <mxCell id="Kz4KI9NuyMRBPdU18y9v-1" value="usuarios" style="rounded=0;whiteSpace=wrap;html=1;" vertex="1" parent="1">
          <mxGeometry x="360" y="320" width="120" height="80" as="geometry" />
        </mxCell>
        <mxCell id="Kz4KI9NuyMRBPdU18y9v-2" value="Possui" style="rhombus;whiteSpace=wrap;html=1;" vertex="1" parent="1">
          <mxGeometry x="220" y="320" width="80" height="80" as="geometry" />
        </mxCell>
        <mxCell id="Kz4KI9NuyMRBPdU18y9v-3" value="codigo_acesso" style="rounded=0;whiteSpace=wrap;html=1;" vertex="1" parent="1">
          <mxGeometry x="40" y="320" width="120" height="80" as="geometry" />
        </mxCell>
        <mxCell id="Kz4KI9NuyMRBPdU18y9v-4" value="anexos" style="rounded=0;whiteSpace=wrap;html=1;" vertex="1" parent="1">
          <mxGeometry x="700" y="320" width="120" height="80" as="geometry" />
        </mxCell>
        <mxCell id="Kz4KI9NuyMRBPdU18y9v-5" value="Armazena" style="rhombus;whiteSpace=wrap;html=1;" vertex="1" parent="1">
          <mxGeometry x="550" y="320" width="80" height="80" as="geometry" />
        </mxCell>
        <mxCell id="Kz4KI9NuyMRBPdU18y9v-6" value="perfil" style="rounded=0;whiteSpace=wrap;html=1;" vertex="1" parent="1">
          <mxGeometry x="360" y="40" width="120" height="80" as="geometry" />
        </mxCell>
        <mxCell id="Kz4KI9NuyMRBPdU18y9v-7" value="controle_acessos" style="rounded=0;whiteSpace=wrap;html=1;" vertex="1" parent="1">
          <mxGeometry x="700" y="480" width="120" height="80" as="geometry" />
        </mxCell>
        <mxCell id="Kz4KI9NuyMRBPdU18y9v-8" value="parametro" style="rounded=0;whiteSpace=wrap;html=1;" vertex="1" parent="1">
          <mxGeometry x="360" y="600" width="120" height="80" as="geometry" />
        </mxCell>
        <mxCell id="Kz4KI9NuyMRBPdU18y9v-9" value="auditoria" style="rounded=0;whiteSpace=wrap;html=1;" vertex="1" parent="1">
          <mxGeometry x="40" y="480" width="120" height="80" as="geometry" />
        </mxCell>
        <mxCell id="Kz4KI9NuyMRBPdU18y9v-10" value="Tem" style="rhombus;whiteSpace=wrap;html=1;" vertex="1" parent="1">
          <mxGeometry x="380" y="170" width="80" height="80" as="geometry" />
        </mxCell>
        <mxCell id="Kz4KI9NuyMRBPdU18y9v-11" value="Gera" style="rhombus;whiteSpace=wrap;html=1;" vertex="1" parent="1">
          <mxGeometry x="220" y="480" width="80" height="80" as="geometry" />
        </mxCell>
        <mxCell id="Kz4KI9NuyMRBPdU18y9v-12" value="Registra" style="rhombus;whiteSpace=wrap;html=1;" vertex="1" parent="1">
          <mxGeometry x="550" y="480" width="80" height="80" as="geometry" />
        </mxCell>
        <mxCell id="Kz4KI9NuyMRBPdU18y9v-14" value="" style="endArrow=none;html=1;rounded=0;exitX=0.5;exitY=0;exitDx=0;exitDy=0;entryX=0.5;entryY=1;entryDx=0;entryDy=0;" edge="1" parent="1" source="Kz4KI9NuyMRBPdU18y9v-10" target="Kz4KI9NuyMRBPdU18y9v-6">
          <mxGeometry width="50" height="50" relative="1" as="geometry">
            <mxPoint x="250" y="180" as="sourcePoint" />
            <mxPoint x="300" y="130" as="targetPoint" />
          </mxGeometry>
        </mxCell>
        <mxCell id="Kz4KI9NuyMRBPdU18y9v-39" value="&lt;font style=&quot;font-size: 15px;&quot;&gt;1&lt;/font&gt;" style="edgeLabel;html=1;align=center;verticalAlign=middle;resizable=0;points=[];" vertex="1" connectable="0" parent="Kz4KI9NuyMRBPdU18y9v-14">
          <mxGeometry x="0.3657" y="-3" relative="1" as="geometry">
            <mxPoint x="7" as="offset" />
          </mxGeometry>
        </mxCell>
        <mxCell id="Kz4KI9NuyMRBPdU18y9v-15" value="" style="endArrow=none;html=1;rounded=0;exitX=0.5;exitY=0;exitDx=0;exitDy=0;entryX=0.5;entryY=1;entryDx=0;entryDy=0;" edge="1" parent="1" source="Kz4KI9NuyMRBPdU18y9v-1" target="Kz4KI9NuyMRBPdU18y9v-10">
          <mxGeometry width="50" height="50" relative="1" as="geometry">
            <mxPoint x="540" y="290" as="sourcePoint" />
            <mxPoint x="590" y="240" as="targetPoint" />
          </mxGeometry>
        </mxCell>
        <mxCell id="Kz4KI9NuyMRBPdU18y9v-36" value="&lt;font style=&quot;font-size: 15px;&quot;&gt;1&lt;/font&gt;" style="edgeLabel;html=1;align=center;verticalAlign=middle;resizable=0;points=[];" vertex="1" connectable="0" parent="Kz4KI9NuyMRBPdU18y9v-15">
          <mxGeometry x="-0.1878" y="-1" relative="1" as="geometry">
            <mxPoint x="-11" y="9" as="offset" />
          </mxGeometry>
        </mxCell>
        <mxCell id="Kz4KI9NuyMRBPdU18y9v-19" value="" style="endArrow=none;html=1;rounded=0;exitX=1;exitY=0.5;exitDx=0;exitDy=0;entryX=0;entryY=0.5;entryDx=0;entryDy=0;" edge="1" parent="1" source="Kz4KI9NuyMRBPdU18y9v-2" target="Kz4KI9NuyMRBPdU18y9v-1">
          <mxGeometry width="50" height="50" relative="1" as="geometry">
            <mxPoint x="290" y="450" as="sourcePoint" />
            <mxPoint x="340" y="400" as="targetPoint" />
          </mxGeometry>
        </mxCell>
        <mxCell id="Kz4KI9NuyMRBPdU18y9v-43" value="&lt;font style=&quot;font-size: 15px;&quot;&gt;1&lt;/font&gt;" style="edgeLabel;html=1;align=center;verticalAlign=middle;resizable=0;points=[];" vertex="1" connectable="0" parent="Kz4KI9NuyMRBPdU18y9v-19">
          <mxGeometry x="-0.0524" y="1" relative="1" as="geometry">
            <mxPoint x="21" y="-19" as="offset" />
          </mxGeometry>
        </mxCell>
        <mxCell id="Kz4KI9NuyMRBPdU18y9v-20" value="" style="endArrow=none;html=1;rounded=0;exitX=1;exitY=0.5;exitDx=0;exitDy=0;entryX=0;entryY=0.5;entryDx=0;entryDy=0;" edge="1" parent="1" source="Kz4KI9NuyMRBPdU18y9v-3" target="Kz4KI9NuyMRBPdU18y9v-2">
          <mxGeometry width="50" height="50" relative="1" as="geometry">
            <mxPoint x="250" y="490" as="sourcePoint" />
            <mxPoint x="300" y="440" as="targetPoint" />
          </mxGeometry>
        </mxCell>
        <mxCell id="Kz4KI9NuyMRBPdU18y9v-44" value="&lt;span style=&quot;font-size: 15px;&quot;&gt;1&lt;/span&gt;" style="edgeLabel;html=1;align=center;verticalAlign=middle;resizable=0;points=[];" vertex="1" connectable="0" parent="Kz4KI9NuyMRBPdU18y9v-20">
          <mxGeometry x="0.0905" relative="1" as="geometry">
            <mxPoint x="-23" y="-20" as="offset" />
          </mxGeometry>
        </mxCell>
        <mxCell id="Kz4KI9NuyMRBPdU18y9v-21" value="" style="endArrow=none;html=1;rounded=0;exitX=1;exitY=0.5;exitDx=0;exitDy=0;entryX=0;entryY=0.5;entryDx=0;entryDy=0;" edge="1" parent="1" source="Kz4KI9NuyMRBPdU18y9v-9" target="Kz4KI9NuyMRBPdU18y9v-11">
          <mxGeometry width="50" height="50" relative="1" as="geometry">
            <mxPoint x="190" y="490" as="sourcePoint" />
            <mxPoint x="240" y="440" as="targetPoint" />
          </mxGeometry>
        </mxCell>
        <mxCell id="Kz4KI9NuyMRBPdU18y9v-46" value="&lt;font style=&quot;font-size: 15px;&quot;&gt;n&lt;/font&gt;" style="edgeLabel;html=1;align=center;verticalAlign=middle;resizable=0;points=[];" vertex="1" connectable="0" parent="Kz4KI9NuyMRBPdU18y9v-21">
          <mxGeometry x="0.0905" y="3" relative="1" as="geometry">
            <mxPoint x="-23" y="-17" as="offset" />
          </mxGeometry>
        </mxCell>
        <mxCell id="Kz4KI9NuyMRBPdU18y9v-22" value="" style="endArrow=none;html=1;rounded=0;exitX=1;exitY=0.5;exitDx=0;exitDy=0;entryX=0.25;entryY=1;entryDx=0;entryDy=0;" edge="1" parent="1" source="Kz4KI9NuyMRBPdU18y9v-11" target="Kz4KI9NuyMRBPdU18y9v-1">
          <mxGeometry width="50" height="50" relative="1" as="geometry">
            <mxPoint x="370" y="530" as="sourcePoint" />
            <mxPoint x="420" y="480" as="targetPoint" />
            <Array as="points">
              <mxPoint x="390" y="520" />
            </Array>
          </mxGeometry>
        </mxCell>
        <mxCell id="Kz4KI9NuyMRBPdU18y9v-23" value="" style="endArrow=none;html=1;rounded=0;exitX=0;exitY=0.5;exitDx=0;exitDy=0;entryX=0.75;entryY=1;entryDx=0;entryDy=0;" edge="1" parent="1" source="Kz4KI9NuyMRBPdU18y9v-12" target="Kz4KI9NuyMRBPdU18y9v-1">
          <mxGeometry width="50" height="50" relative="1" as="geometry">
            <mxPoint x="450" y="520" as="sourcePoint" />
            <mxPoint x="500" y="470" as="targetPoint" />
            <Array as="points">
              <mxPoint x="450" y="520" />
            </Array>
          </mxGeometry>
        </mxCell>
        <mxCell id="Kz4KI9NuyMRBPdU18y9v-42" value="&lt;font style=&quot;font-size: 15px;&quot;&gt;1&lt;/font&gt;" style="edgeLabel;html=1;align=center;verticalAlign=middle;resizable=0;points=[];" vertex="1" connectable="0" parent="Kz4KI9NuyMRBPdU18y9v-23">
          <mxGeometry x="0.8169" relative="1" as="geometry">
            <mxPoint x="10" y="-10" as="offset" />
          </mxGeometry>
        </mxCell>
        <mxCell id="Kz4KI9NuyMRBPdU18y9v-24" value="" style="endArrow=none;html=1;rounded=0;exitX=1;exitY=0.5;exitDx=0;exitDy=0;entryX=0;entryY=0.5;entryDx=0;entryDy=0;" edge="1" parent="1" source="Kz4KI9NuyMRBPdU18y9v-1" target="Kz4KI9NuyMRBPdU18y9v-5">
          <mxGeometry width="50" height="50" relative="1" as="geometry">
            <mxPoint x="540" y="470" as="sourcePoint" />
            <mxPoint x="590" y="420" as="targetPoint" />
          </mxGeometry>
        </mxCell>
        <mxCell id="Kz4KI9NuyMRBPdU18y9v-40" value="&lt;font style=&quot;font-size: 15px;&quot;&gt;1&lt;/font&gt;" style="edgeLabel;html=1;align=center;verticalAlign=middle;resizable=0;points=[];" vertex="1" connectable="0" parent="Kz4KI9NuyMRBPdU18y9v-24">
          <mxGeometry x="0.0571" relative="1" as="geometry">
            <mxPoint x="-27" y="-20" as="offset" />
          </mxGeometry>
        </mxCell>
        <mxCell id="Kz4KI9NuyMRBPdU18y9v-25" value="" style="endArrow=none;html=1;rounded=0;exitX=1;exitY=0.5;exitDx=0;exitDy=0;entryX=0;entryY=0.5;entryDx=0;entryDy=0;" edge="1" parent="1" source="Kz4KI9NuyMRBPdU18y9v-5" target="Kz4KI9NuyMRBPdU18y9v-4">
          <mxGeometry width="50" height="50" relative="1" as="geometry">
            <mxPoint x="490" y="370" as="sourcePoint" />
            <mxPoint x="560" y="370" as="targetPoint" />
          </mxGeometry>
        </mxCell>
        <mxCell id="Kz4KI9NuyMRBPdU18y9v-41" value="&lt;font style=&quot;font-size: 15px;&quot;&gt;1&lt;/font&gt;" style="edgeLabel;html=1;align=center;verticalAlign=middle;resizable=0;points=[];" vertex="1" connectable="0" parent="Kz4KI9NuyMRBPdU18y9v-25">
          <mxGeometry x="-0.1061" y="-2" relative="1" as="geometry">
            <mxPoint x="29" y="-22" as="offset" />
          </mxGeometry>
        </mxCell>
        <mxCell id="Kz4KI9NuyMRBPdU18y9v-27" value="" style="endArrow=none;html=1;rounded=0;entryX=0;entryY=0.5;entryDx=0;entryDy=0;exitX=1;exitY=0.5;exitDx=0;exitDy=0;" edge="1" parent="1" source="Kz4KI9NuyMRBPdU18y9v-12" target="Kz4KI9NuyMRBPdU18y9v-7">
          <mxGeometry width="50" height="50" relative="1" as="geometry">
            <mxPoint x="590" y="680" as="sourcePoint" />
            <mxPoint x="640" y="630" as="targetPoint" />
          </mxGeometry>
        </mxCell>
        <mxCell id="Kz4KI9NuyMRBPdU18y9v-45" value="&lt;font style=&quot;font-size: 15px;&quot;&gt;n&lt;/font&gt;" style="edgeLabel;html=1;align=center;verticalAlign=middle;resizable=0;points=[];" vertex="1" connectable="0" parent="Kz4KI9NuyMRBPdU18y9v-27">
          <mxGeometry x="0.1388" y="3" relative="1" as="geometry">
            <mxPoint x="20" y="-17" as="offset" />
          </mxGeometry>
        </mxCell>
      </root>
    </mxGraphModel>
  </diagram>
</mxfile>
